<?xml version="1.0" standalone="no"?>
<!DOCTYPE svg PUBLIC "-//W3C//DTD SVG 20010904//EN"
 "http://www.w3.org/TR/2001/REC-SVG-20010904/DTD/svg10.dtd">
<svg version="1.0" xmlns="http://www.w3.org/2000/svg"
 width="392.000000pt" height="392.000000pt" viewBox="0 0 392.000000 392.000000"
 preserveAspectRatio="xMidYMid meet">
<metadata>
Created by potrace 1.11, written by Peter Selinger 2001-2013
</metadata>
<g transform="translate(0.000000,392.000000) scale(0.100000,-0.100000)"
fill="#000000" stroke="none">
<path d="M1385 3885 c-22 -7 -71 -27 -110 -45 -38 -18 -113 -50 -165 -71 -52
-22 -124 -59 -160 -83 -36 -24 -96 -63 -135 -88 -127 -81 -248 -186 -354 -308
-42 -49 -148 -264 -162 -329 -6 -31 -9 -99 -7 -160 7 -138 30 -200 104 -278
30 -32 66 -80 80 -106 14 -27 43 -68 65 -92 42 -45 48 -65 25 -85 -17 -13 -11
-36 30 -114 15 -26 33 -71 41 -100 8 -28 15 -55 17 -61 1 -5 9 -30 16 -55 19
-65 19 -64 23 -80 2 -8 7 -24 11 -35 5 -11 12 -33 18 -50 5 -16 13 -39 18 -50
12 -34 41 -119 50 -146 9 -29 34 -14 -250 -147 -226 -105 -282 -140 -322 -199
-49 -71 -40 -126 31 -180 45 -35 138 -72 177 -73 75 0 317 101 442 184 30 20
57 36 62 36 8 0 29 -47 36 -79 1 -8 9 -18 16 -22 7 -5 10 -9 6 -9 -9 0 34 -81
76 -140 18 -25 40 -63 50 -85 23 -49 39 -65 63 -65 11 0 39 -10 63 -21 55 -27
143 -31 208 -12 67 21 72 23 75 22 2 0 174 88 276 142 30 16 61 35 68 41 13
10 14 3 9 -48 -12 -125 -30 -229 -76 -444 -47 -216 -53 -287 -31 -329 16 -28
34 -27 107 10 60 31 64 35 80 94 1 6 21 66 44 135 23 69 44 145 47 170 3 25
16 70 29 100 13 30 42 129 64 220 72 296 81 319 131 358 66 50 136 111 198
170 55 51 71 61 71 43 0 -9 11 -33 114 -254 25 -54 55 -135 67 -180 36 -130
264 -571 342 -658 56 -63 64 -64 174 -25 156 55 156 55 189 110 44 70 104 271
129 426 4 25 18 88 31 140 22 92 47 227 59 320 3 25 7 61 10 80 6 42 13 121
20 215 3 39 7 86 10 105 2 19 7 67 10 105 3 39 8 88 10 110 5 41 11 114 20
240 8 113 15 198 20 225 7 47 16 158 20 271 3 63 10 140 16 172 5 31 7 72 4
91 -4 18 -3 48 2 67 13 48 6 66 -25 72 -63 12 -176 -115 -223 -251 -23 -64
-120 -482 -115 -491 4 -7 19 -190 19 -241 0 -36 -7 -93 -23 -190 -5 -30 -12
-104 -15 -165 -8 -149 -20 -285 -30 -350 -11 -59 -56 -272 -76 -350 -37 -148
-47 -195 -44 -225 1 -16 -3 -37 -10 -47 -11 -15 -15 -15 -29 -4 -60 50 -228
435 -365 834 l-60 175 45 68 c24 38 44 74 44 81 0 6 4 13 9 15 6 2 91 166 96
188 1 3 5 12 8 20 4 8 9 26 11 40 3 14 5 25 6 25 5 0 10 48 11 100 1 33 7 70
15 82 14 23 16 18 -84 208 -22 42 -38 56 -67 59 -14 1 -33 10 -43 19 -10 10
-24 17 -30 17 -7 0 -12 5 -12 10 0 6 -3 9 -7 9 -5 -1 -10 0 -13 1 -10 3 -45
11 -57 12 -16 2 -16 16 -2 57 15 43 4 78 -31 96 -48 25 -76 19 -123 -27 -24
-24 -52 -55 -63 -71 -25 -35 -56 -41 -89 -15 -23 18 -34 19 -93 12 -37 -4 -77
-8 -89 -9 -29 -2 -69 -29 -89 -60 -8 -13 -32 -29 -52 -36 -20 -6 -41 -15 -46
-20 -6 -5 -18 -9 -27 -9 -10 0 -19 -3 -21 -7 -1 -5 -25 -19 -53 -33 -27 -14
-52 -27 -55 -30 -12 -14 -69 -50 -78 -50 -10 0 -107 190 -102 199 1 2 -2 7 -7
10 -4 3 -22 33 -39 66 -18 33 -40 76 -50 95 -11 19 -22 37 -26 38 -5 2 -8 9
-8 16 0 7 -9 22 -20 34 -12 12 -19 22 -17 22 3 0 -12 17 -32 38 -40 43 -75 61
-107 56 -13 -2 -32 8 -50 26 -16 16 -35 30 -41 30 -7 0 -13 5 -13 10 0 6 -6
10 -14 10 -8 0 -16 4 -18 8 -4 11 -96 53 -119 55 -28 2 -23 13 19 38 51 31
330 239 368 275 37 34 54 99 54 200 0 109 -41 165 -124 169 -23 2 -59 -3 -81
-10z m-382 -523 c-85 -80 -107 -111 -97 -135 4 -11 -9 -20 -43 -33 -26 -9 -56
-24 -65 -32 -10 -8 -18 -11 -18 -7 0 4 -9 0 -20 -10 -11 -10 -20 -13 -20 -7 0
14 207 225 265 271 22 17 49 31 60 31 15 -1 0 -20 -62 -78z m-67 -279 c6 -10
28 -49 49 -88 21 -38 53 -96 71 -127 18 -32 31 -58 27 -58 -3 0 1 -7 8 -16 16
-20 30 -44 64 -111 14 -29 31 -55 36 -58 5 -4 7 -10 4 -15 -3 -5 -1 -11 4 -15
5 -3 16 -18 24 -33 7 -15 29 -54 47 -87 18 -33 51 -94 73 -135 21 -41 48 -87
59 -102 11 -16 17 -28 15 -28 -3 0 29 -62 72 -137 42 -76 84 -154 94 -173 19
-37 31 -59 60 -102 10 -16 15 -28 12 -28 -3 0 2 -12 12 -27 10 -16 28 -46 38
-68 11 -22 26 -46 33 -53 6 -7 12 -18 12 -24 0 -5 13 -30 29 -54 21 -31 26
-45 18 -50 -7 -4 -9 -3 -4 1 4 5 1 15 -7 24 -25 30 -86 121 -86 130 0 5 -6 14
-14 20 -8 7 -21 26 -30 44 -9 18 -21 39 -26 47 -17 27 -160 282 -160 285 0 2
-27 49 -60 105 -33 56 -60 103 -60 106 0 2 -22 41 -50 88 -27 47 -50 89 -50
95 0 6 -5 11 -11 11 -5 0 -7 5 -4 10 3 6 2 10 -3 10 -5 0 -12 8 -16 18 -3 9
-14 31 -25 48 -10 17 -30 51 -43 75 -13 24 -36 63 -51 86 -15 24 -27 45 -27
48 0 3 -15 29 -33 58 -19 29 -34 54 -34 57 0 3 -12 24 -26 47 -15 24 -27 44
-27 47 0 2 -16 30 -35 62 -35 58 -43 80 -26 69 5 -3 12 -1 16 5 9 15 19 12 31
-7z m205 -31 c8 -15 17 -29 21 -32 3 -3 8 -12 10 -20 2 -8 7 -19 11 -25 23
-30 75 -115 70 -115 -3 0 6 -15 21 -34 14 -19 26 -38 26 -41 0 -4 19 -39 43
-78 24 -40 47 -79 50 -87 4 -8 16 -28 27 -45 11 -16 24 -39 30 -50 6 -11 24
-42 41 -70 48 -80 78 -146 72 -162 -4 -10 -13 -4 -29 21 -13 19 -24 38 -24 41
0 4 -12 25 -27 48 -16 23 -33 51 -40 62 -6 11 -35 58 -63 105 -28 47 -55 92
-60 100 -5 8 -35 58 -67 110 -32 52 -61 102 -65 111 -4 10 -11 20 -17 24 -6 3
-9 11 -6 16 4 5 2 9 -4 9 -5 0 -22 24 -36 53 -15 28 -33 59 -41 68 -8 8 -14
21 -14 27 0 21 56 -8 71 -36z m855 -580 c-3 -5 2 -18 12 -28 36 -40 102 -148
102 -168 0 -11 -4 -16 -8 -11 -18 21 -72 106 -72 115 0 4 -3 10 -7 12 -5 2
-20 20 -35 40 -25 32 -26 37 -10 41 9 3 18 5 20 6 2 0 1 -3 -2 -7z m881 -84
c5 -31 -13 -20 -33 22 -10 22 -22 40 -26 40 -5 0 -8 6 -8 13 0 18 64 -53 67
-75z m-39 -236 c19 -22 30 -52 18 -52 -15 0 -36 14 -36 25 0 6 -9 20 -20 30
-10 9 -18 20 -17 24 1 3 -10 22 -26 42 -42 55 -32 57 16 3 23 -26 52 -59 65
-72z m-1162 -19 c20 -38 41 -71 46 -74 6 -3 9 -9 9 -13 -1 -12 43 -96 51 -96
4 0 8 -9 8 -19 0 -11 4 -21 8 -23 10 -4 73 -120 69 -125 -2 -2 -12 13 -23 32
-10 19 -22 35 -27 35 -4 0 -6 4 -2 9 3 6 0 13 -8 18 -7 4 -18 19 -25 33 -15
29 -20 38 -87 145 -27 44 -52 82 -56 85 -11 8 -15 60 -5 60 2 0 21 -30 42 -67z
m-925 0 c8 -10 20 -28 27 -41 16 -28 73 -134 98 -182 11 -19 22 -37 25 -40 8
-7 22 -44 21 -52 -1 -5 2 -8 7 -8 5 0 13 -10 16 -22 4 -11 20 -43 36 -70 16
-27 25 -47 19 -43 -5 3 -26 36 -47 73 -44 78 -43 75 -108 184 -27 45 -55 92
-62 103 -7 11 -18 31 -25 45 -7 14 -15 27 -19 30 -10 9 -19 40 -10 40 4 0 14
-8 22 -17z m2027 -209 c-13 -28 -24 -24 -31 13 -8 43 2 57 24 32 14 -17 16
-25 7 -45z m-1843 -413 c8 -16 11 -31 8 -35 -6 -5 -22 19 -36 57 -10 27 11 10
28 -22z m602 -68 c-4 -3 -3 -11 2 -17 19 -23 63 -108 53 -102 -6 4 -24 31 -40
61 -26 48 -30 65 -14 65 3 0 2 -3 -1 -7z m-201 -105 c9 -21 21 -38 26 -38 4 0
8 -5 8 -10 0 -11 39 -71 53 -81 5 -3 9 -10 9 -15 1 -5 8 -20 16 -34 8 -14 22
-36 31 -50 8 -14 14 -27 12 -29 -1 -2 1 -7 6 -10 5 -3 24 -33 43 -66 19 -33
38 -63 43 -66 5 -4 1 -12 -10 -18 -18 -9 -23 -5 -44 37 -13 26 -26 49 -29 52
-4 3 -17 25 -30 50 -59 114 -84 159 -116 215 -19 33 -40 72 -45 88 -6 15 -14
27 -18 27 -4 0 -8 7 -8 16 0 21 30 -17 53 -68z m-533 20 c-13 -12 -25 -19 -29
-15 -10 10 16 37 34 37 13 0 12 -4 -5 -22z m812 -58 c3 -5 2 -10 -4 -10 -5 0
-13 5 -16 10 -3 6 -2 10 4 10 5 0 13 -4 16 -10z m20 -51 c9 -17 15 -33 13 -35
-3 -2 -12 12 -21 31 -21 43 -13 47 8 4z"/>
</g>
</svg>
