<?xml version="1.0" standalone="no"?>
<!DOCTYPE svg PUBLIC "-//W3C//DTD SVG 20010904//EN"
 "http://www.w3.org/TR/2001/REC-SVG-20010904/DTD/svg10.dtd">
<svg version="1.0" xmlns="http://www.w3.org/2000/svg"
 width="827.000000pt" height="827.000000pt" viewBox="0 0 827.000000 827.000000"
 preserveAspectRatio="xMidYMid meet">
<metadata>
Created by potrace 1.11, written by Peter Selinger 2001-2013
</metadata>
<g transform="translate(0.000000,827.000000) scale(0.100000,-0.100000)"
fill="#000000" stroke="none">
<path d="M1988 8174 c-3 -3 -41 -6 -84 -8 -44 -2 -92 -7 -109 -11 -84 -20
-175 -49 -215 -67 -25 -12 -50 -23 -55 -24 -54 -10 -237 -157 -318 -256 -15
-18 -38 -46 -52 -63 -14 -16 -28 -38 -31 -47 -3 -10 -9 -18 -13 -18 -7 0 -112
-192 -118 -215 -1 -5 -12 -37 -23 -70 -134 -388 -110 -833 76 -1391 25 -76 52
-150 60 -165 8 -16 15 -32 15 -36 1 -5 5 -18 10 -31 5 -13 9 -26 9 -28 0 -3 9
-24 19 -47 10 -23 31 -71 46 -107 15 -36 64 -139 108 -230 45 -91 82 -167 82
-170 0 -3 8 -16 16 -30 9 -14 36 -61 59 -105 24 -44 57 -105 73 -135 34 -62
278 -471 322 -540 16 -25 30 -47 30 -50 1 -5 43 -71 164 -255 36 -55 68 -104
70 -110 2 -5 75 -115 161 -245 122 -184 186 -293 292 -500 75 -146 148 -287
163 -315 78 -146 109 -202 145 -270 62 -116 120 -225 150 -280 15 -27 51 -95
80 -150 99 -187 122 -230 132 -242 6 -7 7 -13 2 -13 -5 0 -4 -4 1 -8 12 -8 35
-53 294 -567 109 -214 219 -437 246 -495 96 -210 146 -318 168 -370 8 -19 24
-56 36 -82 22 -49 43 -99 46 -108 1 -3 9 -22 18 -44 9 -21 17 -40 17 -41 0 -1
8 -20 17 -41 9 -22 17 -41 18 -44 1 -3 5 -14 10 -25 4 -11 14 -35 21 -53 8
-19 18 -32 23 -30 23 7 120 96 164 150 68 82 101 132 202 308 49 85 92 157 95
160 3 3 18 30 34 60 16 30 35 62 42 71 8 8 14 20 14 26 0 6 4 13 9 15 5 2 11
10 13 18 2 8 5 17 8 20 3 3 21 30 40 60 19 30 38 57 42 58 5 2 6 7 3 12 -3 5
1 14 8 22 7 7 46 67 87 133 40 66 79 123 84 127 6 4 8 8 3 8 -4 0 9 22 28 50
19 27 35 53 35 58 0 5 8 17 17 28 10 11 27 35 37 54 22 38 117 189 147 232 10
15 19 29 19 31 0 2 42 71 93 153 51 82 147 239 212 349 66 110 122 202 125
205 3 3 15 23 27 45 45 84 66 120 72 125 3 3 15 23 27 45 11 22 47 85 79 140
32 55 65 111 72 125 8 14 25 43 39 65 13 22 34 60 47 85 12 25 25 47 28 50 3
3 9 12 12 20 4 8 15 29 25 45 10 17 32 55 49 85 17 30 45 80 62 110 18 30 39
71 49 90 9 19 20 37 23 40 5 5 51 90 142 261 19 36 42 78 52 92 9 15 14 27 10
27 -3 0 3 13 14 28 22 32 272 538 321 652 18 41 45 102 61 135 15 33 39 89 54
125 14 36 33 79 41 97 8 17 14 38 14 47 0 9 4 16 9 16 5 0 11 12 14 28 3 15
14 45 23 67 10 22 18 42 19 45 1 5 42 116 52 140 3 8 7 20 9 25 2 6 28 86 58
179 30 93 53 173 50 178 -3 4 -1 8 4 8 5 0 9 6 9 13 0 6 10 48 22 92 28 102
26 93 50 205 21 101 30 160 46 305 3 28 8 68 11 90 16 109 10 408 -10 535 -4
19 -8 49 -11 65 -18 124 -69 270 -132 382 -56 100 -197 252 -278 298 -27 16
-52 32 -55 35 -13 16 -176 80 -210 83 -11 1 -20 4 -20 7 0 3 -8 6 -17 7 -10 1
-29 3 -43 6 -86 18 -268 24 -365 13 -70 -8 -131 -17 -147 -22 -9 -3 -26 -7
-39 -9 -64 -12 -209 -69 -251 -98 -16 -10 -28 -15 -28 -12 0 3 -13 -3 -29 -14
-16 -12 -34 -21 -40 -21 -6 0 -11 -4 -11 -10 0 -5 -5 -10 -11 -10 -14 0 -120
-74 -219 -154 -71 -57 -410 -387 -410 -400 0 -3 -12 -18 -27 -34 -54 -56 -198
-228 -249 -297 -32 -43 -53 -71 -69 -89 -11 -12 -100 -141 -125 -180 -89 -142
-260 -467 -260 -495 0 -28 -17 3 -45 84 -15 44 -34 95 -41 113 -8 17 -20 47
-28 65 -7 17 -21 54 -31 80 -10 26 -22 50 -26 53 -5 3 -9 12 -9 21 0 17 -170
362 -189 385 -6 7 -26 36 -44 63 -17 28 -35 55 -39 60 -63 86 -143 191 -147
195 -4 3 -26 30 -51 60 -117 142 -350 373 -498 492 -147 118 -180 142 -340
247 -64 41 -317 171 -335 171 -5 0 -23 6 -40 14 -58 25 -154 56 -174 56 -11 0
-23 3 -27 8 -4 4 -11 7 -14 7 -8 1 -99 17 -122 21 -8 2 -49 6 -90 9 -41 4 -77
8 -81 10 -3 3 -9 2 -11 -1z"/>
</g>
</svg>
